REM DIRINDEX 1\2\6,1\2\7,1\2\8,1\2\9,1\3\10,1\3\11,1\4\12,1\4\13,1\4\14,1\5\15,1\5\16,1\5\17
REM DIRNAME folder01,folder02,folder03,folder04,folder05,folder06,folder07,folder08,folder09,folder10,folder11,folder12,folder13,folder14,folder15,folder16,folder17
TITLE ""
FILE "1900_2_sec04_0301_0315.mp3" MP3
  TRACK 01 AUDIO
    TITLE "0:"
    INDEX 01 00:00:00
  TRACK 02 AUDIO
    TITLE "12:cjc020_2698"
    INDEX 01 00:03:21
  TRACK 03 AUDIO
    TITLE "0:"
    INDEX 01 00:05:01
  TRACK 04 AUDIO
    TITLE "12:cjc020_2699"
    INDEX 01 00:05:44
  TRACK 05 AUDIO
    TITLE "0:"
    INDEX 01 00:06:67
  TRACK 06 AUDIO
    TITLE "13:cjc020_2700"
    INDEX 01 00:07:68
  TRACK 07 AUDIO
    TITLE "0:"
    INDEX 01 00:09:28
  TRACK 08 AUDIO
    TITLE "14:cjc020_2701"
    INDEX 01 00:09:32
  TRACK 09 AUDIO
    TITLE "0:"
    INDEX 01 00:13:61
  TRACK 10 AUDIO
    TITLE "13:cjc020_2702"
    INDEX 01 00:14:41
  TRACK 11 AUDIO
    TITLE "0:"
    INDEX 01 00:15:56
  TRACK 12 AUDIO
    TITLE "14:cjc020_2703"
    INDEX 01 00:15:58
  TRACK 13 AUDIO
    TITLE "0:"
    INDEX 01 00:19:48
  TRACK 14 AUDIO
    TITLE "13:cjc020_2704"
    INDEX 01 00:20:30
  TRACK 15 AUDIO
    TITLE "0:"
    INDEX 01 00:21:39
  TRACK 16 AUDIO
    TITLE "14:cjc020_2705"
    INDEX 01 00:21:41
  TRACK 17 AUDIO
    TITLE "0:"
    INDEX 01 00:23:38
  TRACK 18 AUDIO
    TITLE "13:cjc020_2706"
    INDEX 01 00:24:18
  TRACK 19 AUDIO
    TITLE "0:"
    INDEX 01 00:25:37
  TRACK 20 AUDIO
    TITLE "14:cjc020_2707"
    INDEX 01 00:25:43
  TRACK 21 AUDIO
    TITLE "0:"
    INDEX 01 00:27:57
  TRACK 22 AUDIO
    TITLE "13:cjc020_2708"
    INDEX 01 00:28:35
  TRACK 23 AUDIO
    TITLE "0:"
    INDEX 01 00:29:50
  TRACK 24 AUDIO
    TITLE "14:cjc020_2709"
    INDEX 01 00:29:56
  TRACK 25 AUDIO
    TITLE "0:"
    INDEX 01 00:33:73
  TRACK 26 AUDIO
    TITLE "13:cjc020_2710"
    INDEX 01 00:34:51
  TRACK 27 AUDIO
    TITLE "0:"
    INDEX 01 00:35:68
  TRACK 28 AUDIO
    TITLE "14:cjc020_2711"
    INDEX 01 00:35:72
  TRACK 29 AUDIO
    TITLE "0:"
    INDEX 01 00:37:22
  TRACK 30 AUDIO
    TITLE "13:cjc020_2712"
    INDEX 01 00:38:00
  TRACK 31 AUDIO
    TITLE "0:"
    INDEX 01 00:39:15
  TRACK 32 AUDIO
    TITLE "14:cjc020_2713"
    INDEX 01 00:39:17
  TRACK 33 AUDIO
    TITLE "0:"
    INDEX 01 00:43:33
  TRACK 34 AUDIO
    TITLE "13:cjc020_2714"
    INDEX 01 00:44:14
  TRACK 35 AUDIO
    TITLE "0:"
    INDEX 01 00:45:37
  TRACK 36 AUDIO
    TITLE "14:cjc020_2715"
    INDEX 01 00:45:39
  TRACK 37 AUDIO
    TITLE "0:"
    INDEX 01 00:48:42
  TRACK 38 AUDIO
    TITLE "13:cjc020_2716"
    INDEX 01 00:49:25
  TRACK 39 AUDIO
    TITLE "0:"
    INDEX 01 00:50:39
  TRACK 40 AUDIO
    TITLE "14:cjc020_2717"
    INDEX 01 00:50:44
  TRACK 41 AUDIO
    TITLE "0:"
    INDEX 01 00:53:09
  TRACK 42 AUDIO
    TITLE "13:cjc020_2718"
    INDEX 01 00:53:66
  TRACK 43 AUDIO
    TITLE "0:"
    INDEX 01 00:54:74
  TRACK 44 AUDIO
    TITLE "14:cjc020_2719"
    INDEX 01 00:55:03
  TRACK 45 AUDIO
    TITLE "0:"
    INDEX 01 00:58:42
  TRACK 46 AUDIO
    TITLE "13:cjc020_2720"
    INDEX 01 00:59:24
  TRACK 47 AUDIO
    TITLE "0:"
    INDEX 01 01:00:47
  TRACK 48 AUDIO
    TITLE "14:cjc020_2721"
    INDEX 01 01:00:51
  TRACK 49 AUDIO
    TITLE "0:"
    INDEX 01 01:03:27
  TRACK 50 AUDIO
    TITLE "13:cjc020_2722"
    INDEX 01 01:04:07
  TRACK 51 AUDIO
    TITLE "0:"
    INDEX 01 01:05:30
  TRACK 52 AUDIO
    TITLE "14:cjc020_2723"
    INDEX 01 01:05:34
  TRACK 53 AUDIO
    TITLE "0:"
    INDEX 01 01:08:38
  TRACK 54 AUDIO
    TITLE "13:cjc020_2724"
    INDEX 01 01:09:22
  TRACK 55 AUDIO
    TITLE "0:"
    INDEX 01 01:10:47
  TRACK 56 AUDIO
    TITLE "14:cjc020_2725"
    INDEX 01 01:10:49
  TRACK 57 AUDIO
    TITLE "0:"
    INDEX 01 01:13:14
  TRACK 58 AUDIO
    TITLE "13:cjc020_2726"
    INDEX 01 01:13:69
  TRACK 59 AUDIO
    TITLE "0:"
    INDEX 01 01:15:03
  TRACK 60 AUDIO
    TITLE "14:cjc020_2727"
    INDEX 01 01:15:05
  TRACK 61 AUDIO
    TITLE "0:"
    INDEX 01 01:18:02
  TRACK 62 AUDIO
    TITLE "13:cjc020_2728"
    INDEX 01 01:18:58
  TRACK 63 AUDIO
    TITLE "0:"
    INDEX 01 01:20:20
  TRACK 64 AUDIO
    TITLE "14:cjc020_2729"
    INDEX 01 01:20:24
  TRACK 65 AUDIO
    TITLE "0:"
    INDEX 01 01:23:52
